<svg version="1.1" id="Layer_1" xmlns="http://www.w3.org/2000/svg" xmlns:xlink="http://www.w3.org/1999/xlink" x="0px" y="0px"
	 width="100%" viewBox="0 0 711 768" enable-background="new 0 0 711 768" xml:space="preserve">
<path fill="#000000" opacity="1.000000" stroke="none" 
	d="
M1.000000,231.000000 
	C1.000000,154.352814 1.000000,77.705620 1.000000,1.029214 
	C237.920303,1.029214 474.840607,1.029214 712.000000,1.029214 
	C712.000000,241.692459 712.000000,482.384979 711.701660,723.465942 
	C710.255249,723.197571 709.107117,722.540833 707.621582,721.891479 
	C706.467285,721.595947 705.650391,721.293091 704.817566,720.734009 
	C704.181458,720.286560 703.561218,720.095337 702.628784,719.874634 
	C700.158020,718.542297 697.999451,717.239319 695.776245,715.752869 
	C695.560608,715.336487 695.347839,715.199646 694.707886,715.103577 
	C693.173218,714.364624 692.003967,713.680847 690.755859,712.863342 
	C690.367065,712.576843 690.103760,712.653015 689.560791,712.948853 
	C688.198853,712.302673 687.163208,711.665833 686.152832,710.863647 
	C685.747498,710.784607 685.316956,710.870911 684.555298,710.945068 
	C683.427246,710.618652 682.630371,710.304443 681.817566,709.734009 
	C681.181458,709.286621 680.561218,709.095337 679.605103,708.906006 
	C678.457214,708.602051 677.645325,708.296143 676.817566,707.734070 
	C676.181458,707.286560 675.561218,707.095276 674.605103,706.906006 
	C673.457214,706.602051 672.645386,706.296143 671.817566,705.734009 
	C671.181458,705.286560 670.561218,705.095337 669.605103,704.906006 
	C668.457214,704.602051 667.645386,704.296143 666.817566,703.734009 
	C666.181458,703.286560 665.561279,703.095276 664.621826,702.872192 
	C660.479492,701.223206 656.656494,699.606079 652.857056,697.742188 
	C652.108704,697.101685 651.336853,696.708069 650.279907,696.401978 
	C649.274414,696.322571 648.553955,696.155701 647.857056,695.742065 
	C647.108704,695.101746 646.336853,694.708130 645.279785,694.401978 
	C644.274292,694.321960 643.553894,694.154480 642.855774,693.737488 
	C642.257446,693.047485 641.636780,692.606995 640.678772,692.089966 
	C639.505859,691.341248 638.670349,690.669189 637.755859,689.863342 
	C637.367065,689.576843 637.103760,689.653015 636.528137,689.958923 
	C635.057312,689.636536 633.945435,689.313354 632.817566,688.734009 
	C632.181458,688.286560 631.561218,688.095276 630.644775,687.876343 
	C629.843506,687.561829 629.338501,687.275085 628.810669,686.711914 
	C628.059570,686.129333 627.331299,685.823181 626.305542,685.557251 
	C625.283203,685.393677 624.558411,685.189758 623.800049,684.694153 
	C623.183411,683.990479 622.600281,683.578430 621.674561,683.098267 
	C620.501587,682.665466 619.671265,682.300903 618.776245,681.752869 
	C618.560608,681.336487 618.347839,681.199646 617.699890,681.106567 
	C616.164551,680.681641 615.002747,680.309021 613.776245,679.752869 
	C613.560608,679.336487 613.347839,679.199646 612.731323,679.084717 
	C611.537720,678.339478 610.686279,677.668274 609.755859,676.863342 
	C609.367065,676.576843 609.103760,676.653015 608.547119,676.946045 
	C607.083069,676.288330 605.958923,675.642700 604.755859,674.863342 
	C604.367065,674.576843 604.103760,674.653015 603.550659,674.933228 
	C598.213623,672.595398 593.265991,670.157898 588.199280,668.000061 
	C581.326843,665.073181 574.307068,662.489990 567.456116,659.515991 
	C561.706543,657.020081 556.105652,654.180908 550.443542,651.484131 
	C543.205200,648.036804 536.059937,644.374023 528.699402,641.211670 
	C524.877991,639.569946 520.326660,636.771790 516.546631,639.483582 
	C512.007751,642.739807 508.476257,647.417236 504.579346,651.546021 
	C501.376801,654.939209 498.565277,658.761963 495.062439,661.796387 
	C490.341187,665.886353 485.118469,669.396729 480.126587,673.176514 
	C479.746704,673.464233 479.546143,673.986877 479.168762,674.279968 
	C476.248566,676.548523 473.361450,678.866150 470.351318,681.010254 
	C467.980927,682.698669 465.369568,684.050598 463.012756,685.755859 
	C460.520325,687.559326 458.482605,690.240784 455.761871,691.437561 
	C440.875580,697.985413 425.857513,704.235840 410.844360,710.491577 
	C407.040955,712.076477 402.617950,715.124512 399.319550,714.267517 
	C394.581573,713.036438 391.374084,714.949280 387.605011,716.166504 
	C385.100250,716.975342 381.549561,719.359314 380.331390,718.473755 
	C375.945282,715.285034 373.067169,718.582031 369.609009,719.675720 
	C368.444824,720.044006 367.138824,720.088257 365.900665,720.070435 
	C363.814758,720.040527 361.725525,719.676697 359.647949,719.748962 
	C354.770233,719.918579 349.899841,720.298462 345.022125,720.467468 
	C344.643829,720.480591 344.231415,719.510254 343.755920,718.863281 
	C343.367035,718.576904 343.103729,718.653137 342.532593,719.023010 
	C339.729919,719.388672 337.281738,719.689514 334.817627,719.734131 
	C334.181519,719.286560 333.561340,719.095215 332.587494,718.976685 
	C330.434174,718.698669 328.634521,718.347839 326.755920,717.863281 
	C326.367035,717.576904 326.103729,717.653137 325.516724,717.990112 
	C323.042572,717.680298 320.938721,717.338623 318.755920,716.863281 
	C318.367035,716.576904 318.103729,716.653137 317.535095,717.018921 
	C315.400421,716.718689 313.617645,716.357849 311.755920,715.863281 
	C311.367035,715.576904 311.103729,715.653137 310.551727,715.984009 
	C308.505859,715.696533 306.795258,715.383179 305.172913,714.963684 
	C305.049896,714.705322 304.838684,714.553101 304.249512,714.380859 
	C302.192657,713.906250 300.513763,713.451599 298.755920,712.863281 
	C298.367035,712.576904 298.103729,712.653137 297.563416,713.007446 
	C293.869049,712.047424 290.498322,711.038208 287.152832,709.863647 
	C286.747498,709.784546 286.316956,709.870911 285.531372,709.953979 
	C284.062469,709.299500 282.948669,708.648254 281.755920,707.863281 
	C281.367035,707.576904 281.103729,707.653137 280.571533,707.977051 
	C278.784363,707.642639 277.312683,707.289490 275.776245,706.752808 
	C275.560547,706.336487 275.347809,706.199646 274.773315,706.135254 
	C273.262512,705.719910 272.051758,705.328064 270.776245,704.752808 
	C270.560547,704.336487 270.347809,704.199646 269.751129,704.150146 
	C268.230438,704.091492 267.031982,704.041443 265.793182,703.696411 
	C264.803375,703.247803 263.853943,703.094177 262.634338,702.785583 
	C261.854462,701.752686 261.344666,700.874878 260.755920,699.863281 
	C260.367035,699.576904 260.103729,699.653137 259.560730,699.948853 
	C258.198853,699.302673 257.163208,698.665833 256.152832,697.863647 
	C255.747513,697.784607 255.316956,697.870911 254.555298,697.945068 
	C253.427307,697.618652 252.630417,697.304504 251.817596,696.734131 
	C251.181473,696.286621 250.561264,696.095276 249.673920,695.782349 
	C248.884842,695.085876 248.362900,694.511108 247.776245,693.752808 
	C247.560562,693.336487 247.347870,693.199646 246.726776,693.094360 
	C245.531265,692.683472 244.682388,692.336853 243.817596,691.734131 
	C243.181473,691.286621 242.561264,691.095276 241.605118,690.905884 
	C240.457291,690.602051 239.645401,690.296204 238.817596,689.734131 
	C238.181458,689.286621 237.561249,689.095276 236.644684,688.876038 
	C235.843414,688.560669 235.338516,688.273254 234.800095,687.694092 
	C234.183395,686.990417 233.600220,686.578430 232.772507,686.007812 
	C232.061172,685.242493 231.594376,684.635742 231.152802,683.863586 
	C230.747498,683.784546 230.316940,683.870911 229.596375,683.914795 
	C228.815399,683.577148 228.324448,683.281982 227.855774,682.737305 
	C227.257416,682.047363 226.636749,681.606934 225.674988,681.099731 
	C224.500488,680.683533 223.667068,680.334106 222.799911,679.682678 
	C222.188751,678.879517 221.611313,678.378296 220.923187,677.642761 
	C220.584213,676.948608 220.355911,676.488770 220.152817,675.863586 
	C219.747482,675.784546 219.316940,675.870911 218.552917,675.900940 
	C213.758148,672.210449 208.967758,668.908020 204.902145,664.874939 
	C195.629654,655.676697 185.900787,646.838806 178.904297,635.597778 
	C178.492996,634.936951 177.693344,634.528564 177.218475,633.894836 
	C175.393204,631.458923 173.299576,629.149719 171.906418,626.479980 
	C169.036362,620.979919 166.209381,615.538269 160.842316,611.621216 
	C160.239639,609.923767 159.594299,608.609863 159.022003,607.264771 
	C154.890533,597.554993 150.180969,588.037109 146.845016,578.060364 
	C144.297424,570.441345 138.106339,563.577820 140.814178,554.524170 
	C141.034042,553.789062 140.177307,552.737610 139.835129,551.827759 
	C138.324631,547.811584 135.047562,543.421265 135.792160,539.876831 
	C136.596130,536.049744 135.253479,533.307800 134.882111,530.070740 
	C134.121323,523.439575 133.354172,516.796265 133.000687,510.136169 
	C132.804764,506.444641 133.631851,502.709534 133.641281,498.993164 
	C133.649780,495.646301 132.784149,492.272797 133.001556,488.956726 
	C133.311737,484.225372 134.293518,479.540466 134.924545,474.827148 
	C135.749252,468.667206 136.160934,462.427460 137.398254,456.354065 
	C138.662933,450.146271 140.181046,443.886261 142.523636,438.022858 
	C147.877869,424.621490 153.006165,411.026184 159.740082,398.311401 
	C165.483765,387.466339 173.288040,377.704315 180.294479,367.541534 
	C182.287811,364.650238 184.622650,361.985474 186.900955,359.301819 
	C189.808823,355.876526 192.529724,352.214874 195.855133,349.240936 
	C200.243896,345.316040 205.143005,341.962219 209.814468,338.352173 
	C210.071930,338.153198 210.363007,337.890991 210.454803,337.600250 
	C211.988159,332.743896 216.575134,331.920624 220.361252,330.011810 
	C221.812088,329.280334 223.245056,328.450195 224.526413,327.458588 
	C227.437439,325.205902 229.911240,322.062164 233.157852,320.623413 
	C250.924637,312.749908 268.857361,305.249176 286.766815,297.700500 
	C290.730591,296.029755 295.417389,292.675049 298.733673,293.644653 
	C304.039856,295.196014 307.381989,292.607819 311.575745,291.379486 
	C317.375305,289.680756 323.879944,292.156494 329.452942,288.605133 
	C329.637054,288.487793 330.206451,288.644592 330.353119,288.848511 
	C332.495117,291.826691 334.737122,289.619110 336.968048,289.041168 
	C338.223267,288.716003 340.147095,287.893799 340.688263,288.416077 
	C343.212311,290.851990 345.474548,289.732330 347.980316,288.650818 
	C348.769958,288.310059 350.398254,288.258728 350.694885,288.704987 
	C352.304535,291.126373 353.992188,289.867340 355.818512,289.227905 
	C356.874084,288.858276 358.132202,288.563141 359.185211,288.782288 
	C362.740417,289.522064 366.430878,291.628021 369.715973,291.082367 
	C372.997467,290.537323 375.293274,292.013367 378.045715,292.406769 
	C381.610352,292.916290 385.244904,293.127167 388.728455,293.967773 
	C393.683472,295.163391 398.530579,296.807709 403.419830,298.273560 
	C408.206726,299.708679 412.985992,301.169159 417.773499,302.602142 
	C421.957367,303.854401 426.148041,305.083893 429.966736,306.214233 
	C430.778625,301.569153 431.427277,298.270447 431.920593,294.948700 
	C432.901642,288.343170 433.892609,281.736450 434.693420,275.107758 
	C435.198090,270.929993 435.315033,266.706879 435.702026,262.512939 
	C435.955322,259.767792 436.321869,257.029419 436.742493,254.304184 
	C437.399933,250.044647 438.324982,245.819031 438.809265,241.541992 
	C439.411499,236.223007 439.631775,230.861954 440.107452,225.527130 
	C440.585999,220.159897 441.165588,214.801529 441.719147,209.441162 
	C442.250885,204.292114 442.654358,199.123444 443.397766,194.004593 
	C444.018219,189.732162 445.391296,185.554138 445.826477,181.272827 
	C446.716797,172.513885 447.142456,163.708771 447.872559,154.932098 
	C448.368469,148.970596 449.056793,143.025116 449.709808,136.873474 
	C449.760559,136.674469 449.724579,136.265305 449.799286,135.908417 
	C450.555115,133.066086 451.569244,130.616699 451.843048,128.087189 
	C452.309357,123.778336 452.056641,119.389320 452.561737,115.087502 
	C453.503937,107.062675 455.330231,99.099785 455.670044,91.063812 
	C455.838867,87.071060 453.553406,82.965454 452.247314,78.953522 
	C452.196594,78.797729 450.783325,79.085533 449.778137,79.003418 
	C449.312103,78.556259 449.072815,78.272331 448.810730,77.711967 
	C448.059601,77.129372 447.331299,76.823212 446.274261,76.575943 
	C444.908630,76.088913 443.871735,75.542984 442.755920,74.863319 
	C442.367065,74.576904 442.103729,74.653122 441.521027,74.987152 
	C437.381683,74.009712 433.608276,73.003380 429.755920,71.863312 
	C429.367065,71.576904 429.103729,71.653122 428.552795,72.013657 
	C426.756897,72.042778 425.295227,72.016510 423.817596,71.734085 
	C423.181488,71.286552 422.561340,71.095161 421.577759,70.946075 
	C417.061829,71.358467 413.091003,71.037178 409.755920,67.863319 
	C409.367065,67.576904 409.103729,67.653122 408.535065,68.018944 
	C406.400391,67.718773 404.617645,67.357910 402.755920,66.863319 
	C402.367065,66.576904 402.103729,66.653122 401.516663,66.990128 
	C399.042542,66.680351 396.938721,66.338699 394.755920,65.863319 
	C394.367065,65.576904 394.103729,65.653122 393.535065,66.018944 
	C391.400391,65.718773 389.617645,65.357910 387.755920,64.863319 
	C387.367065,64.576904 387.103729,64.653122 386.514709,64.990486 
	C384.041962,64.993904 381.941467,64.965080 379.776245,64.752762 
	C379.560577,64.336494 379.347900,64.199661 378.716034,64.164154 
	C376.183563,64.442505 374.008575,64.715454 371.810730,64.711960 
	C371.059570,64.129372 370.331299,63.823227 369.258026,63.622898 
	C366.803833,64.175583 364.475983,66.438828 362.755920,62.863327 
	C362.367065,62.576908 362.103729,62.653122 361.532532,63.023048 
	C358.729919,63.388660 356.281708,63.689465 353.817596,63.734123 
	C353.181488,63.286572 352.561340,63.095169 351.596252,62.977673 
	C349.112091,63.364792 346.972809,63.678005 344.793213,63.696289 
	C343.803406,63.247761 342.853943,63.094158 341.560669,63.005787 
	C339.089050,63.377434 336.961304,63.683849 334.817596,63.734119 
	C334.181488,63.286575 333.561340,63.095173 332.567322,62.952442 
	C329.407471,62.593498 326.618958,67.373466 323.755920,62.863327 
	C323.367065,62.576908 323.103729,62.653122 322.519501,62.992706 
	C320.326294,63.719147 318.544647,64.747154 316.660553,64.994209 
	C315.216553,65.183548 313.643311,64.387138 312.152771,63.863716 
	C311.747437,63.784622 311.316895,63.870968 310.518402,63.992107 
	C308.370087,64.699120 306.629364,65.733742 304.797363,65.934265 
	C303.196594,66.109474 301.493011,65.345886 299.755920,64.863319 
	C299.367065,64.576904 299.103729,64.653122 298.510254,64.994110 
	C292.718567,65.881653 287.280823,66.611992 281.895935,67.623619 
	C277.635468,68.424026 273.810089,72.376083 268.986084,69.152687 
	C268.463928,68.803787 267.121704,69.552811 266.216980,69.929619 
	C263.305786,71.142090 260.459534,72.520386 257.510742,73.628487 
	C256.000946,74.195847 253.423386,75.127899 252.877960,74.515358 
	C250.124832,71.423393 247.909225,73.675262 245.500732,74.678726 
	C241.671524,76.274117 237.904327,78.058334 233.979645,79.369911 
	C231.538925,80.185570 228.866180,80.362892 226.278580,80.662560 
	C224.658997,80.850113 222.816925,80.262581 221.395477,80.828529 
	C212.302353,84.448967 203.279800,88.249496 194.268417,92.071877 
	C173.184387,101.015152 152.111893,109.985901 131.064468,119.014816 
	C129.628174,119.630943 128.373734,120.744171 127.148697,121.763214 
	C125.082008,123.482368 123.350342,125.771088 121.040535,126.995377 
	C116.653770,129.320557 111.935127,131.012695 107.406631,133.082169 
	C106.259384,133.606445 105.253616,134.497025 104.279503,135.332062 
	C102.012184,137.275635 99.993767,139.578766 97.520630,141.194611 
	C94.773598,142.989426 90.147346,143.447815 88.985756,145.796768 
	C86.820290,150.175797 82.958702,151.141449 79.546677,153.242798 
	C78.181099,154.083801 76.912132,155.106262 75.693298,156.155441 
	C73.627197,157.933960 71.728348,159.916321 69.593971,161.604034 
	C64.965363,165.263977 60.151775,168.692612 55.571522,172.410110 
	C52.703850,174.737640 50.003574,177.303787 47.442123,179.968491 
	C43.732597,183.827545 40.315277,187.968399 36.588055,191.809250 
	C33.383881,195.111084 29.720860,197.978119 26.614693,201.362305 
	C20.974262,207.507538 15.399368,213.736313 10.194286,220.247681 
	C7.654323,223.425095 6.008298,227.317078 3.587556,230.927917 
	C2.478319,230.980133 1.739159,230.990067 1.000000,231.000000 
M427.574768,553.598267 
	C430.584656,548.965271 434.302246,544.637207 436.457153,539.635803 
	C440.952148,529.203491 447.032196,519.224487 446.910889,507.198822 
	C446.878754,504.010193 449.035645,500.715637 448.702057,497.630371 
	C447.860046,489.843323 448.025665,481.773987 444.078613,474.555237 
	C443.479034,473.458679 443.016418,471.804535 443.399872,470.734009 
	C445.396515,465.159637 441.563873,461.763641 438.900879,457.956818 
	C437.916718,456.549896 436.263123,455.589966 435.369263,454.145081 
	C432.359619,449.279999 429.638794,444.512909 425.585114,440.076782 
	C417.612701,431.352142 408.642883,424.714264 398.036377,420.037598 
	C394.297852,418.389191 390.318268,417.221130 386.364258,416.143738 
	C380.929169,414.662750 375.460449,412.747620 369.918152,412.392822 
	C365.427155,412.105316 360.396393,410.015228 356.078094,413.662842 
	C355.747314,413.942230 354.628265,413.180206 353.851410,413.063507 
	C352.471680,412.856262 350.862671,412.253357 349.715668,412.718506 
	C339.256927,416.960327 328.870056,421.380066 318.480865,425.791870 
	C316.509796,426.628937 314.224579,427.255402 312.771118,428.679810 
	C308.899078,432.474518 305.601227,436.857056 301.712616,440.632599 
	C294.042236,448.079987 289.303741,457.292633 285.006409,466.854309 
	C281.391022,474.898712 280.782440,483.416382 280.398468,492.057312 
	C279.842316,504.572754 280.295715,516.936890 285.150635,528.684875 
	C287.162476,533.553223 289.182495,538.617554 292.282593,542.786926 
	C296.239594,548.108704 301.681366,552.312561 305.768097,557.555603 
	C310.071899,563.077087 315.389801,566.966492 321.520691,569.928162 
	C326.674408,572.417908 331.892273,574.794800 337.184631,576.971497 
	C341.618378,578.795166 346.106567,581.158447 350.742035,581.642944 
	C356.072449,582.200012 361.636292,582.867676 366.760773,582.767212 
	C371.788544,582.668701 377.526367,582.331360 382.417114,580.909485 
	C391.283020,578.331909 399.650635,574.015564 408.172974,570.302734 
	C409.794220,569.596375 411.310852,568.480652 412.631805,567.284424 
	C417.482147,562.891968 422.229706,558.386047 427.574768,553.598267 
M436.432434,73.609917 
	C436.432434,73.609917 436.341492,73.473488 436.432434,73.609917 
M416.555969,69.516853 
	C416.555969,69.516853 416.416382,69.600418 416.555969,69.516853 
M286.555969,66.516853 
	C286.555969,66.516853 286.416382,66.600418 286.555969,66.516853 
z"/>
<path fill="#003551" opacity="1.000000" stroke="none" 
	d="
M1.000000,231.466034 
	C1.739159,230.990067 2.478319,230.980133 3.615540,231.365677 
	C4.342402,238.408218 4.956219,245.055191 4.958326,251.702362 
	C5.011367,418.996338 4.999715,586.290344 5.000944,753.584351 
	C5.001028,764.992371 5.006494,764.998779 16.233963,764.998901 
	C238.681656,765.000183 461.129333,765.000305 683.577026,764.993408 
	C685.908325,764.993286 688.343994,765.298523 690.540833,764.728394 
	C692.647339,764.181763 695.102234,763.147156 696.376160,761.521484 
	C704.311096,751.395935 710.641296,740.622681 708.036499,726.875244 
	C707.731323,725.264465 707.971558,723.550293 707.958984,721.884094 
	C709.107117,722.540833 710.255249,723.197571 711.701660,723.927185 
	C712.000000,732.355957 712.000000,740.711914 711.635437,749.513184 
	C710.394043,750.623840 709.245605,751.113892 708.684387,751.983032 
	C705.051575,757.609253 701.546753,763.318176 698.000000,769.000000 
	C465.747955,769.000000 233.495880,769.000000 1.000000,769.000000 
	C1.000000,589.977417 1.000000,410.954742 1.000000,231.466034 
z"/>
<path fill="#000000" opacity="1.000000" stroke="none" 
	d="
M698.474121,769.000000 
	C701.546753,763.318176 705.051575,757.609253 708.684387,751.983032 
	C709.245605,751.113892 710.394043,750.623840 711.635437,749.979248 
	C712.000000,756.245972 712.000000,762.492004 712.000000,769.000000 
	C707.652832,769.000000 703.300537,769.000000 698.474121,769.000000 
z"/>
<path fill="#003551" opacity="1.000000" stroke="none" 
	d="
M707.621582,721.891479 
	C707.971558,723.550293 707.731323,725.264465 708.036499,726.875244 
	C710.641296,740.622681 704.311096,751.395935 696.376160,761.521484 
	C695.102234,763.147156 692.647339,764.181763 690.540833,764.728394 
	C688.343994,765.298523 685.908325,764.993286 683.577026,764.993408 
	C461.129333,765.000305 238.681656,765.000183 16.233963,764.998901 
	C5.006494,764.998779 5.001028,764.992371 5.000944,753.584351 
	C4.999715,586.290344 5.011367,418.996338 4.958326,251.702362 
	C4.956219,245.055191 4.342402,238.408218 3.985618,231.323395 
	C6.008298,227.317078 7.654323,223.425095 10.194286,220.247681 
	C15.399368,213.736313 20.974262,207.507538 26.614693,201.362305 
	C29.720860,197.978119 33.383881,195.111084 36.588055,191.809250 
	C40.315277,187.968399 43.732597,183.827545 47.442123,179.968491 
	C50.003574,177.303787 52.703850,174.737640 55.571522,172.410110 
	C60.151775,168.692612 64.965363,165.263977 69.593971,161.604034 
	C71.728348,159.916321 73.627197,157.933960 75.693298,156.155441 
	C76.912132,155.106262 78.181099,154.083801 79.546677,153.242798 
	C82.958702,151.141449 86.820290,150.175797 88.985756,145.796768 
	C90.147346,143.447815 94.773598,142.989426 97.520630,141.194611 
	C99.993767,139.578766 102.012184,137.275635 104.279503,135.332062 
	C105.253616,134.497025 106.259384,133.606445 107.406631,133.082169 
	C111.935127,131.012695 116.653770,129.320557 121.040535,126.995377 
	C123.350342,125.771088 125.082008,123.482368 127.148697,121.763214 
	C128.373734,120.744171 129.628174,119.630943 131.064468,119.014816 
	C152.111893,109.985901 173.184387,101.015152 194.268417,92.071877 
	C203.279800,88.249496 212.302353,84.448967 221.395477,80.828529 
	C222.816925,80.262581 224.658997,80.850113 226.278580,80.662560 
	C228.866180,80.362892 231.538925,80.185570 233.979645,79.369911 
	C237.904327,78.058334 241.671524,76.274117 245.500732,74.678726 
	C247.909225,73.675262 250.124832,71.423393 252.877960,74.515358 
	C253.423386,75.127899 256.000946,74.195847 257.510742,73.628487 
	C260.459534,72.520386 263.305786,71.142090 266.216980,69.929619 
	C267.121704,69.552811 268.463928,68.803787 268.986084,69.152687 
	C273.810089,72.376083 277.635468,68.424026 281.895935,67.623619 
	C287.280823,66.611992 292.718567,65.881653 298.747253,65.003937 
	C299.361023,64.977890 299.834869,64.997047 299.834869,64.997047 
	C301.493011,65.345886 303.196594,66.109474 304.797363,65.934265 
	C306.629364,65.733742 308.370087,64.699120 310.828705,64.010101 
	C311.713837,64.005257 311.920685,64.017204 312.127533,64.029152 
	C313.643311,64.387138 315.216553,65.183548 316.660553,64.994209 
	C318.544647,64.747154 320.326294,63.719147 322.756531,63.002533 
	C323.361023,62.977894 323.834869,62.997059 323.834869,62.997059 
	C326.618958,67.373466 329.407471,62.593498 332.798889,63.096954 
	C333.880676,63.458622 334.357117,63.724445 334.833527,63.990269 
	C336.961304,63.683849 339.089050,63.377434 341.850220,63.120583 
	C343.266907,63.443844 344.050201,63.717537 344.833527,63.991226 
	C346.972809,63.678005 349.112091,63.364792 351.827820,63.122177 
	C352.880676,63.458611 353.357117,63.724434 353.833527,63.990265 
	C356.281708,63.689465 358.729919,63.388660 361.769562,63.032875 
	C362.361023,62.977894 362.834869,62.997059 362.834869,62.997059 
	C364.475983,66.438828 366.803833,64.175583 369.536560,63.809998 
	C370.717896,64.256996 371.275726,64.622704 371.833557,64.988403 
	C374.008575,64.715454 376.183563,64.442505 378.839722,64.297287 
	C379.489136,64.600639 379.662476,64.771049 379.840973,64.936264 
	C381.941467,64.965080 384.041962,64.993904 386.751740,65.000305 
	C387.361023,64.977890 387.834869,64.997047 387.834869,64.997047 
	C389.617645,65.357910 391.400391,65.718773 393.772095,66.028763 
	C394.361023,65.977890 394.834869,65.997047 394.834869,65.997047 
	C396.938721,66.338699 399.042542,66.680351 401.753723,66.999947 
	C402.361023,66.977890 402.834869,66.997047 402.834869,66.997047 
	C404.617645,67.357910 406.400391,67.718773 408.772095,68.028763 
	C409.361023,67.977890 409.834869,67.997047 409.834869,67.997047 
	C413.091003,71.037178 417.061829,71.358467 421.809326,71.090576 
	C422.880676,71.458603 423.357117,71.724419 423.833527,71.990234 
	C425.295227,72.016510 426.756897,72.042778 428.789795,72.023468 
	C429.361023,71.977890 429.834869,71.997047 429.834869,71.997040 
	C433.608276,73.003380 437.381683,74.009712 441.758057,74.996971 
	C442.361023,74.977890 442.834869,74.997047 442.834869,74.997047 
	C443.871735,75.542984 444.908630,76.088913 446.552795,76.763062 
	C447.717896,77.256996 448.275726,77.622696 448.833557,77.988403 
	C449.072815,78.272331 449.312103,78.556259 449.865814,79.370567 
	C450.771179,83.650177 452.176697,87.482323 451.805084,91.133583 
	C450.530365,103.657303 448.792419,116.142296 446.868683,128.586029 
	C446.339203,132.011292 446.751495,134.449142 449.724579,136.265305 
	C449.724579,136.265305 449.760559,136.674469 449.336060,136.985992 
	C447.525970,140.101791 445.479797,142.779205 444.911072,145.740356 
	C444.078705,150.074188 444.576904,154.645081 444.029907,159.055649 
	C442.359375,172.525482 440.334717,185.951767 438.702423,199.425827 
	C437.868378,206.310837 437.867096,213.299042 436.979156,220.174728 
	C435.367096,232.657669 433.208832,245.069931 431.586792,257.551758 
	C430.019440,269.612823 429.054688,281.753601 427.411407,293.802917 
	C426.416626,301.097076 424.666534,302.005859 417.750977,299.222656 
	C401.465820,292.668579 384.862122,287.131805 367.287323,285.811371 
	C353.760956,284.795074 340.130341,284.352448 326.581207,284.776703 
	C319.119537,285.010345 311.735168,287.584045 304.304047,289.042267 
	C303.014465,289.295319 301.652496,289.158661 300.346863,289.354614 
	C297.096588,289.842377 293.514099,289.701324 290.671478,291.071289 
	C266.533508,302.703857 239.521362,308.252014 218.046387,325.570282 
	C212.048767,330.406952 204.711365,333.711639 199.187805,338.977112 
	C190.459839,347.297241 182.346390,356.353394 174.695160,365.689972 
	C163.576004,379.258362 154.883072,394.442719 147.660049,410.417267 
	C140.778885,425.635803 137.122437,441.781128 133.354263,458.011444 
	C129.904175,472.871704 128.283264,487.654297 128.798828,502.762787 
	C129.333847,518.441895 130.301025,534.076904 135.735001,549.046448 
	C136.340820,550.715332 136.256378,552.627319 136.560181,554.414978 
	C137.080765,557.478027 137.163895,560.727539 138.290268,563.556519 
	C143.772156,577.324524 149.420151,591.030457 155.305191,604.630371 
	C156.490005,607.368347 158.957397,609.551331 160.833466,611.990234 
	C166.209381,615.538269 169.036362,620.979919 171.906418,626.479980 
	C173.299576,629.149719 175.393204,631.458923 177.218475,633.894836 
	C177.693344,634.528564 178.492996,634.936951 178.904297,635.597778 
	C185.900787,646.838806 195.629654,655.676697 204.902145,664.874939 
	C208.967758,668.908020 213.758148,672.210449 218.863220,675.918945 
	C219.713882,676.005249 219.920731,676.017151 220.127594,676.028992 
	C220.355911,676.488770 220.584213,676.948608 221.072571,677.878723 
	C221.832962,678.894287 222.333298,679.439453 222.833633,679.984680 
	C223.667068,680.334106 224.500488,680.683533 225.832275,681.305054 
	C226.831589,682.046936 227.332535,682.516907 227.833496,682.986816 
	C228.324448,683.281982 228.815399,683.577148 229.906677,683.932800 
	C230.713882,684.005249 230.920731,684.017151 231.127594,684.028992 
	C231.594376,684.635742 232.061172,685.242493 232.929718,686.212891 
	C233.832169,687.046387 234.332870,687.516113 234.833603,687.985840 
	C235.338516,688.273254 235.843414,688.560669 236.876266,689.020508 
	C237.880646,689.458740 238.357071,689.724548 238.833511,689.990356 
	C239.645401,690.296204 240.457291,690.602051 241.836700,691.050415 
	C242.880676,691.458679 243.357101,691.724487 243.833527,691.990295 
	C244.682388,692.336853 245.531265,692.683472 246.850494,693.227539 
	C247.489120,693.600647 247.662476,693.771057 247.840942,693.936279 
	C248.362900,694.511108 248.884842,695.085876 249.905518,695.926758 
	C250.880676,696.458679 251.357101,696.724487 251.833527,696.990295 
	C252.630417,697.304504 253.427307,697.618652 254.865601,697.963013 
	C255.713882,698.005249 255.920731,698.017151 256.127594,698.028992 
	C257.163208,698.665833 258.198853,699.302673 259.797791,699.958679 
	C260.361084,699.977844 260.834869,699.997009 260.834869,699.997009 
	C261.344666,700.874878 261.854462,701.752686 262.923889,702.900391 
	C264.266907,703.443848 265.050232,703.717590 265.833527,703.991333 
	C267.031982,704.041443 268.230438,704.091492 269.874878,704.283325 
	C270.489075,704.600647 270.662476,704.771057 270.840973,704.936279 
	C272.051758,705.328064 273.262512,705.719910 274.897034,706.268433 
	C275.489075,706.600647 275.662476,706.771057 275.840973,706.936279 
	C277.312683,707.289490 278.784363,707.642639 280.808594,707.986816 
	C281.361084,707.977844 281.834869,707.997009 281.834869,707.997009 
	C282.948669,708.648254 284.062469,709.299500 285.841675,709.971985 
	C286.713898,710.005249 286.920746,710.017151 287.127594,710.029053 
	C290.498322,711.038208 293.869049,712.047424 297.800415,713.017212 
	C298.361084,712.977844 298.834869,712.997009 298.834869,712.996948 
	C300.513763,713.451599 302.192657,713.906250 304.359558,714.551025 
	C304.847595,714.741150 305.084686,715.069824 305.084686,715.069824 
	C306.795258,715.383179 308.505859,715.696533 310.788757,715.993896 
	C311.361084,715.977844 311.834869,715.997009 311.834869,715.997009 
	C313.617645,716.357849 315.400421,716.718689 317.772156,717.028687 
	C318.361084,716.977844 318.834869,716.997009 318.834869,716.997009 
	C320.938721,717.338623 323.042572,717.680298 325.753754,717.999878 
	C326.361084,717.977844 326.834869,717.997009 326.834869,717.997009 
	C328.634521,718.347839 330.434174,718.698669 332.819031,719.121094 
	C333.880707,719.458557 334.357117,719.724426 334.833527,719.990295 
	C337.281738,719.689514 339.729919,719.388672 342.769592,719.032837 
	C343.361084,718.977844 343.834869,718.997009 343.834869,718.997009 
	C344.231415,719.510254 344.643829,720.480591 345.022125,720.467468 
	C349.899841,720.298462 354.770233,719.918579 359.647949,719.748962 
	C361.725525,719.676697 363.814758,720.040527 365.900665,720.070435 
	C367.138824,720.088257 368.444824,720.044006 369.609009,719.675720 
	C373.067169,718.582031 375.945282,715.285034 380.331390,718.473755 
	C381.549561,719.359314 385.100250,716.975342 387.605011,716.166504 
	C391.374084,714.949280 394.581573,713.036438 399.319550,714.267517 
	C402.617950,715.124512 407.040955,712.076477 410.844360,710.491577 
	C425.857513,704.235840 440.875580,697.985413 455.761871,691.437561 
	C458.482605,690.240784 460.520325,687.559326 463.012756,685.755859 
	C465.369568,684.050598 467.980927,682.698669 470.351318,681.010254 
	C473.361450,678.866150 476.248566,676.548523 479.168762,674.279968 
	C479.546143,673.986877 479.746704,673.464233 480.126587,673.176514 
	C485.118469,669.396729 490.341187,665.886353 495.062439,661.796387 
	C498.565277,658.761963 501.376801,654.939209 504.579346,651.546021 
	C508.476257,647.417236 512.007751,642.739807 516.546631,639.483582 
	C520.326660,636.771790 524.877991,639.569946 528.699402,641.211670 
	C536.059937,644.374023 543.205200,648.036804 550.443542,651.484131 
	C556.105652,654.180908 561.706543,657.020081 567.456116,659.515991 
	C574.307068,662.489990 581.326843,665.073181 588.199280,668.000061 
	C593.265991,670.157898 598.213623,672.595398 603.787659,674.943115 
	C604.361023,674.977844 604.834778,674.997070 604.834778,674.997070 
	C605.958923,675.642700 607.083069,676.288330 608.784119,676.955872 
	C609.361023,676.977844 609.834778,676.997070 609.834778,676.997070 
	C610.686279,677.668274 611.537720,678.339478 612.854980,679.217896 
	C613.489075,679.600708 613.662415,679.771118 613.840881,679.936401 
	C615.002747,680.309021 616.164551,680.681641 617.823608,681.239746 
	C618.489075,681.600708 618.662415,681.771118 618.840881,681.936401 
	C619.671265,682.300903 620.501587,682.665466 621.831726,683.303345 
	C622.832153,684.046326 623.332886,684.516113 623.833557,684.985840 
	C624.558411,685.189758 625.283203,685.393677 626.584106,685.744385 
	C627.717896,686.256958 628.275696,686.622620 628.833496,686.988342 
	C629.338501,687.275085 629.843506,687.561829 630.876343,688.020752 
	C631.880615,688.458740 632.357056,688.724487 632.833496,688.990234 
	C633.945435,689.313354 635.057312,689.636536 636.765137,689.968750 
	C637.361023,689.977844 637.834778,689.997070 637.834778,689.997070 
	C638.670349,690.669189 639.505859,691.341248 640.836060,692.295166 
	C641.831604,693.046997 642.332581,693.516968 642.833496,693.986938 
	C643.553894,694.154480 644.274292,694.321960 645.556641,694.628235 
	C646.690247,695.174316 647.261841,695.581604 647.833496,695.988892 
	C648.553955,696.155701 649.274414,696.322571 650.556763,696.628174 
	C651.690247,697.174255 652.261902,697.581604 652.833496,697.988892 
	C656.656494,699.606079 660.479492,701.223206 664.853394,703.016663 
	C665.880615,703.458740 666.357056,703.724487 666.833496,703.990234 
	C667.645386,704.296143 668.457214,704.602051 669.836670,705.050415 
	C670.880615,705.458740 671.357056,705.724487 671.833496,705.990234 
	C672.645386,706.296143 673.457214,706.602051 674.836670,707.050415 
	C675.880615,707.458740 676.357056,707.724487 676.833496,707.990234 
	C677.645325,708.296143 678.457214,708.602051 679.836670,709.050476 
	C680.880615,709.458740 681.357056,709.724487 681.833496,709.990234 
	C682.630371,710.304443 683.427246,710.618652 684.865601,710.963013 
	C685.713806,711.005127 685.920654,711.017090 686.127563,711.028992 
	C687.163208,711.665833 688.198853,712.302673 689.797729,712.958679 
	C690.361023,712.977844 690.834778,712.997070 690.834778,712.997070 
	C692.003967,713.680847 693.173218,714.364624 694.831604,715.236755 
	C695.489075,715.600708 695.662415,715.771118 695.840881,715.936401 
	C697.999451,717.239319 700.158020,718.542297 702.860352,720.019165 
	C703.880615,720.458740 704.357056,720.724487 704.833496,720.990234 
	C705.650391,721.293091 706.467285,721.595947 707.621582,721.891479 
z"/>
<path fill="#003551" opacity="1.000000" stroke="none" 
	d="
M427.295349,553.760498 
	C422.229706,558.386047 417.482147,562.891968 412.631805,567.284424 
	C411.310852,568.480652 409.794220,569.596375 408.172974,570.302734 
	C399.650635,574.015564 391.283020,578.331909 382.417114,580.909485 
	C377.526367,582.331360 371.788544,582.668701 366.760773,582.767212 
	C361.636292,582.867676 356.072449,582.200012 350.742035,581.642944 
	C346.106567,581.158447 341.618378,578.795166 337.184631,576.971497 
	C331.892273,574.794800 326.674408,572.417908 321.520691,569.928162 
	C315.389801,566.966492 310.071899,563.077087 305.768097,557.555603 
	C301.681366,552.312561 296.239594,548.108704 292.282593,542.786926 
	C289.182495,538.617554 287.162476,533.553223 285.150635,528.684875 
	C280.295715,516.936890 279.842316,504.572754 280.398468,492.057312 
	C280.782440,483.416382 281.391022,474.898712 285.006409,466.854309 
	C289.303741,457.292633 294.042236,448.079987 301.712616,440.632599 
	C305.601227,436.857056 308.899078,432.474518 312.771118,428.679810 
	C314.224579,427.255402 316.509796,426.628937 318.480865,425.791870 
	C328.870056,421.380066 339.256927,416.960327 349.715668,412.718506 
	C350.862671,412.253357 352.471680,412.856262 353.851410,413.063507 
	C354.628265,413.180206 355.747314,413.942230 356.078094,413.662842 
	C360.396393,410.015228 365.427155,412.105316 369.918152,412.392822 
	C375.460449,412.747620 380.929169,414.662750 386.364258,416.143738 
	C390.318268,417.221130 394.297852,418.389191 398.036377,420.037598 
	C408.642883,424.714264 417.612701,431.352142 425.585114,440.076782 
	C429.638794,444.512909 432.359619,449.279999 435.369263,454.145081 
	C436.263123,455.589966 437.916718,456.549896 438.900879,457.956818 
	C441.563873,461.763641 445.396515,465.159637 443.399872,470.734009 
	C443.016418,471.804535 443.479034,473.458679 444.078613,474.555237 
	C448.025665,481.773987 447.860046,489.843323 448.702057,497.630371 
	C449.035645,500.715637 446.878754,504.010193 446.910889,507.198822 
	C447.032196,519.224487 440.952148,529.203491 436.457153,539.635803 
	C434.302246,544.637207 430.584656,548.965271 427.295349,553.760498 
z"/>
<path fill="#003551" opacity="1.000000" stroke="none" 
	d="
M160.842316,611.621216 
	C158.957397,609.551331 156.490005,607.368347 155.305191,604.630371 
	C149.420151,591.030457 143.772156,577.324524 138.290268,563.556519 
	C137.163895,560.727539 137.080765,557.478027 136.560181,554.414978 
	C136.256378,552.627319 136.340820,550.715332 135.735001,549.046448 
	C130.301025,534.076904 129.333847,518.441895 128.798828,502.762787 
	C128.283264,487.654297 129.904175,472.871704 133.354263,458.011444 
	C137.122437,441.781128 140.778885,425.635803 147.660049,410.417267 
	C154.883072,394.442719 163.576004,379.258362 174.695160,365.689972 
	C182.346390,356.353394 190.459839,347.297241 199.187805,338.977112 
	C204.711365,333.711639 212.048767,330.406952 218.046387,325.570282 
	C239.521362,308.252014 266.533508,302.703857 290.671478,291.071289 
	C293.514099,289.701324 297.096588,289.842377 300.346863,289.354614 
	C301.652496,289.158661 303.014465,289.295319 304.304047,289.042267 
	C311.735168,287.584045 319.119537,285.010345 326.581207,284.776703 
	C340.130341,284.352448 353.760956,284.795074 367.287323,285.811371 
	C384.862122,287.131805 401.465820,292.668579 417.750977,299.222656 
	C424.666534,302.005859 426.416626,301.097076 427.411407,293.802917 
	C429.054688,281.753601 430.019440,269.612823 431.586792,257.551758 
	C433.208832,245.069931 435.367096,232.657669 436.979156,220.174728 
	C437.867096,213.299042 437.868378,206.310837 438.702423,199.425827 
	C440.334717,185.951767 442.359375,172.525482 444.029907,159.055649 
	C444.576904,154.645081 444.078705,150.074188 444.911072,145.740356 
	C445.479797,142.779205 447.525970,140.101791 449.285309,137.184998 
	C449.056793,143.025116 448.368469,148.970596 447.872559,154.932098 
	C447.142456,163.708771 446.716797,172.513885 445.826477,181.272827 
	C445.391296,185.554138 444.018219,189.732162 443.397766,194.004593 
	C442.654358,199.123444 442.250885,204.292114 441.719147,209.441162 
	C441.165588,214.801529 440.585999,220.159897 440.107452,225.527130 
	C439.631775,230.861954 439.411499,236.223007 438.809265,241.541992 
	C438.324982,245.819031 437.399933,250.044647 436.742493,254.304184 
	C436.321869,257.029419 435.955322,259.767792 435.702026,262.512939 
	C435.315033,266.706879 435.198090,270.929993 434.693420,275.107758 
	C433.892609,281.736450 432.901642,288.343170 431.920593,294.948700 
	C431.427277,298.270447 430.778625,301.569153 429.966736,306.214233 
	C426.148041,305.083893 421.957367,303.854401 417.773499,302.602142 
	C412.985992,301.169159 408.206726,299.708679 403.419830,298.273560 
	C398.530579,296.807709 393.683472,295.163391 388.728455,293.967773 
	C385.244904,293.127167 381.610352,292.916290 378.045715,292.406769 
	C375.293274,292.013367 372.997467,290.537323 369.715973,291.082367 
	C366.430878,291.628021 362.740417,289.522064 359.185211,288.782288 
	C358.132202,288.563141 356.874084,288.858276 355.818512,289.227905 
	C353.992188,289.867340 352.304535,291.126373 350.694885,288.704987 
	C350.398254,288.258728 348.769958,288.310059 347.980316,288.650818 
	C345.474548,289.732330 343.212311,290.851990 340.688263,288.416077 
	C340.147095,287.893799 338.223267,288.716003 336.968048,289.041168 
	C334.737122,289.619110 332.495117,291.826691 330.353119,288.848511 
	C330.206451,288.644592 329.637054,288.487793 329.452942,288.605133 
	C323.879944,292.156494 317.375305,289.680756 311.575745,291.379486 
	C307.381989,292.607819 304.039856,295.196014 298.733673,293.644653 
	C295.417389,292.675049 290.730591,296.029755 286.766815,297.700500 
	C268.857361,305.249176 250.924637,312.749908 233.157852,320.623413 
	C229.911240,322.062164 227.437439,325.205902 224.526413,327.458588 
	C223.245056,328.450195 221.812088,329.280334 220.361252,330.011810 
	C216.575134,331.920624 211.988159,332.743896 210.454803,337.600250 
	C210.363007,337.890991 210.071930,338.153198 209.814468,338.352173 
	C205.143005,341.962219 200.243896,345.316040 195.855133,349.240936 
	C192.529724,352.214874 189.808823,355.876526 186.900955,359.301819 
	C184.622650,361.985474 182.287811,364.650238 180.294479,367.541534 
	C173.288040,377.704315 165.483765,387.466339 159.740082,398.311401 
	C153.006165,411.026184 147.877869,424.621490 142.523636,438.022858 
	C140.181046,443.886261 138.662933,450.146271 137.398254,456.354065 
	C136.160934,462.427460 135.749252,468.667206 134.924545,474.827148 
	C134.293518,479.540466 133.311737,484.225372 133.001556,488.956726 
	C132.784149,492.272797 133.649780,495.646301 133.641281,498.993164 
	C133.631851,502.709534 132.804764,506.444641 133.000687,510.136169 
	C133.354172,516.796265 134.121323,523.439575 134.882111,530.070740 
	C135.253479,533.307800 136.596130,536.049744 135.792160,539.876831 
	C135.047562,543.421265 138.324631,547.811584 139.835129,551.827759 
	C140.177307,552.737610 141.034042,553.789062 140.814178,554.524170 
	C138.106339,563.577820 144.297424,570.441345 146.845016,578.060364 
	C150.180969,588.037109 154.890533,597.554993 159.022003,607.264771 
	C159.594299,608.609863 160.239639,609.923767 160.842316,611.621216 
z"/>
<path fill="#003551" opacity="1.000000" stroke="none" 
	d="
M449.799286,135.908417 
	C446.751495,134.449142 446.339203,132.011292 446.868683,128.586029 
	C448.792419,116.142296 450.530365,103.657303 451.805084,91.133583 
	C452.176697,87.482323 450.771179,83.650177 450.092590,79.533798 
	C450.783325,79.085533 452.196594,78.797729 452.247314,78.953522 
	C453.553406,82.965454 455.838867,87.071060 455.670044,91.063812 
	C455.330231,99.099785 453.503937,107.062675 452.561737,115.087502 
	C452.056641,119.389320 452.309357,123.778336 451.843048,128.087189 
	C451.569244,130.616699 450.555115,133.066086 449.799286,135.908417 
z"/>
<path fill="#003551" opacity="1.000000" stroke="none" 
	d="
M647.857056,695.742188 
	C647.261841,695.581604 646.690247,695.174316 645.841797,694.540771 
	C646.336853,694.708130 647.108704,695.101746 647.857056,695.742188 
z"/>
<path fill="#003551" opacity="1.000000" stroke="none" 
	d="
M227.855774,682.737305 
	C227.332535,682.516907 226.831589,682.046936 226.173355,681.371765 
	C226.636749,681.606934 227.257416,682.047363 227.855774,682.737305 
z"/>
<path fill="#003551" opacity="1.000000" stroke="none" 
	d="
M642.855774,693.737488 
	C642.332581,693.516968 641.831604,693.046997 641.173401,692.371765 
	C641.636780,692.606995 642.257446,693.047485 642.855774,693.737488 
z"/>
<path fill="#003551" opacity="1.000000" stroke="none" 
	d="
M652.857056,697.742126 
	C652.261902,697.581604 651.690247,697.174255 650.841797,696.540710 
	C651.336853,696.708069 652.108704,697.101685 652.857056,697.742126 
z"/>
<path fill="#003551" opacity="1.000000" stroke="none" 
	d="
M265.793182,703.696411 
	C265.050232,703.717590 264.266907,703.443848 263.194031,703.055420 
	C263.853943,703.094177 264.803375,703.247803 265.793182,703.696411 
z"/>
<path fill="#003551" opacity="1.000000" stroke="none" 
	d="
M344.793213,63.696297 
	C344.050201,63.717537 343.266907,63.443844 342.194031,63.055351 
	C342.853943,63.094158 343.803406,63.247761 344.793213,63.696297 
z"/>
<path fill="#003551" opacity="1.000000" stroke="none" 
	d="
M251.817612,696.734131 
	C251.357101,696.724487 250.880676,696.458679 250.172653,696.048401 
	C250.561264,696.095276 251.181473,696.286621 251.817612,696.734131 
z"/>
<path fill="#003551" opacity="1.000000" stroke="none" 
	d="
M234.800079,687.694092 
	C234.332870,687.516113 233.832169,687.046387 233.174255,686.371521 
	C233.600220,686.578430 234.183395,686.990417 234.800079,687.694092 
z"/>
<path fill="#003551" opacity="1.000000" stroke="none" 
	d="
M666.817566,703.734009 
	C666.357056,703.724487 665.880615,703.458740 665.172607,703.048462 
	C665.561279,703.095276 666.181458,703.286560 666.817566,703.734009 
z"/>
<path fill="#003551" opacity="1.000000" stroke="none" 
	d="
M243.817596,691.734131 
	C243.357101,691.724487 242.880676,691.458679 242.172638,691.048401 
	C242.561264,691.095276 243.181473,691.286621 243.817596,691.734131 
z"/>
<path fill="#003551" opacity="1.000000" stroke="none" 
	d="
M238.817596,689.734131 
	C238.357071,689.724548 237.880646,689.458740 237.172638,689.048462 
	C237.561249,689.095276 238.181458,689.286621 238.817596,689.734131 
z"/>
<path fill="#003551" opacity="1.000000" stroke="none" 
	d="
M632.817566,688.734009 
	C632.357056,688.724487 631.880615,688.458740 631.172607,688.048523 
	C631.561218,688.095276 632.181458,688.286560 632.817566,688.734009 
z"/>
<path fill="#003551" opacity="1.000000" stroke="none" 
	d="
M671.817566,705.734009 
	C671.357056,705.724487 670.880615,705.458740 670.172607,705.048523 
	C670.561218,705.095337 671.181458,705.286560 671.817566,705.734009 
z"/>
<path fill="#003551" opacity="1.000000" stroke="none" 
	d="
M628.810669,686.711914 
	C628.275696,686.622620 627.717896,686.256958 626.881592,685.704102 
	C627.331299,685.823181 628.059570,686.129333 628.810669,686.711914 
z"/>
<path fill="#003551" opacity="1.000000" stroke="none" 
	d="
M676.817566,707.734009 
	C676.357056,707.724487 675.880615,707.458740 675.172607,707.048523 
	C675.561218,707.095276 676.181458,707.286560 676.817566,707.734009 
z"/>
<path fill="#003551" opacity="1.000000" stroke="none" 
	d="
M681.817566,709.734009 
	C681.357056,709.724487 680.880615,709.458740 680.172607,709.048523 
	C680.561218,709.095337 681.181458,709.286621 681.817566,709.734009 
z"/>
<path fill="#003551" opacity="1.000000" stroke="none" 
	d="
M334.817627,719.734131 
	C334.357117,719.724426 333.880707,719.458557 333.172729,719.048279 
	C333.561340,719.095215 334.181519,719.286560 334.817627,719.734131 
z"/>
<path fill="#003551" opacity="1.000000" stroke="none" 
	d="
M704.817566,720.734009 
	C704.357056,720.724487 703.880615,720.458740 703.172607,720.048523 
	C703.561218,720.095337 704.181458,720.286560 704.817566,720.734009 
z"/>
<path fill="#003551" opacity="1.000000" stroke="none" 
	d="
M623.800049,684.694153 
	C623.332886,684.516113 622.832153,684.046326 622.174316,683.371521 
	C622.600281,683.578430 623.183411,683.990479 623.800049,684.694153 
z"/>
<path fill="#003551" opacity="1.000000" stroke="none" 
	d="
M222.799911,679.682678 
	C222.333298,679.439453 221.832962,678.894287 221.183258,678.113098 
	C221.611313,678.378296 222.188751,678.879517 222.799911,679.682678 
z"/>
<path fill="#003551" opacity="1.000000" stroke="none" 
	d="
M334.817596,63.734123 
	C334.357117,63.724445 333.880676,63.458622 333.172729,63.048283 
	C333.561340,63.095173 334.181488,63.286575 334.817596,63.734123 
z"/>
<path fill="#003551" opacity="1.000000" stroke="none" 
	d="
M353.817596,63.734116 
	C353.357117,63.724434 352.880676,63.458611 352.172729,63.048279 
	C352.561340,63.095169 353.181488,63.286572 353.817596,63.734116 
z"/>
<path fill="#003551" opacity="1.000000" stroke="none" 
	d="
M448.810730,77.711960 
	C448.275726,77.622696 447.717896,77.256996 446.881531,76.704170 
	C447.331299,76.823212 448.059601,77.129372 448.810730,77.711960 
z"/>
<path fill="#003551" opacity="1.000000" stroke="none" 
	d="
M371.810730,64.711967 
	C371.275726,64.622704 370.717896,64.256996 369.881531,63.704185 
	C370.331299,63.823227 371.059570,64.129372 371.810730,64.711967 
z"/>
<path fill="#003551" opacity="1.000000" stroke="none" 
	d="
M423.817596,71.734085 
	C423.357117,71.724419 422.880676,71.458603 422.172729,71.048279 
	C422.561340,71.095161 423.181488,71.286552 423.817596,71.734085 
z"/>
<path fill="#003551" opacity="1.000000" stroke="none" 
	d="
M220.152817,675.863586 
	C219.920731,676.017151 219.713882,676.005249 219.196716,675.975281 
	C219.316940,675.870911 219.747482,675.784546 220.152817,675.863586 
z"/>
<path fill="#003551" opacity="1.000000" stroke="none" 
	d="
M231.152817,683.863586 
	C230.920731,684.017151 230.713882,684.005249 230.196716,683.975281 
	C230.316940,683.870911 230.747498,683.784546 231.152817,683.863586 
z"/>
<path fill="#003551" opacity="1.000000" stroke="none" 
	d="
M312.152771,63.863716 
	C311.920685,64.017204 311.713837,64.005257 311.196655,63.975307 
	C311.316895,63.870968 311.747437,63.784622 312.152771,63.863716 
z"/>
<path fill="#003551" opacity="1.000000" stroke="none" 
	d="
M287.152832,709.863647 
	C286.920746,710.017151 286.713898,710.005249 286.196716,709.975281 
	C286.316956,709.870911 286.747498,709.784546 287.152832,709.863647 
z"/>
<path fill="#003551" opacity="1.000000" stroke="none" 
	d="
M686.152832,710.863647 
	C685.920654,711.017090 685.713806,711.005127 685.196716,710.975220 
	C685.316956,710.870911 685.747498,710.784607 686.152832,710.863647 
z"/>
<path fill="#003551" opacity="1.000000" stroke="none" 
	d="
M256.152832,697.863647 
	C255.920731,698.017151 255.713882,698.005249 255.196716,697.975281 
	C255.316956,697.870911 255.747513,697.784607 256.152832,697.863647 
z"/>
<path fill="#003551" opacity="1.000000" stroke="none" 
	d="
M318.755920,716.863281 
	C318.834869,716.997009 318.361084,716.977844 318.124054,716.968018 
	C318.103729,716.653137 318.367035,716.576904 318.755920,716.863281 
z"/>
<path fill="#003551" opacity="1.000000" stroke="none" 
	d="
M299.755920,64.863319 
	C299.834869,64.997047 299.361023,64.977890 299.123993,64.968071 
	C299.103729,64.653122 299.367065,64.576904 299.755920,64.863319 
z"/>
<path fill="#003551" opacity="1.000000" stroke="none" 
	d="
M281.755920,707.863281 
	C281.834869,707.997009 281.361084,707.977844 281.124054,707.968018 
	C281.103729,707.653137 281.367035,707.576904 281.755920,707.863281 
z"/>
<path fill="#003551" opacity="1.000000" stroke="none" 
	d="
M298.755920,712.863281 
	C298.834869,712.997009 298.361084,712.977844 298.124054,712.968018 
	C298.103729,712.653137 298.367035,712.576904 298.755920,712.863281 
z"/>
<path fill="#003551" opacity="1.000000" stroke="none" 
	d="
M690.755859,712.863342 
	C690.834778,712.997070 690.361023,712.977844 690.124023,712.968018 
	C690.103760,712.653015 690.367065,712.576843 690.755859,712.863342 
z"/>
<path fill="#003551" opacity="1.000000" stroke="none" 
	d="
M304.737549,714.571045 
	C304.838684,714.553101 305.049896,714.705322 305.172913,714.963684 
	C305.084686,715.069824 304.847595,714.741150 304.737549,714.571045 
z"/>
<path fill="#003551" opacity="1.000000" stroke="none" 
	d="
M311.755920,715.863281 
	C311.834869,715.997009 311.361084,715.977844 311.124054,715.968018 
	C311.103729,715.653137 311.367035,715.576904 311.755920,715.863281 
z"/>
<path fill="#003551" opacity="1.000000" stroke="none" 
	d="
M695.776245,715.752869 
	C695.662415,715.771118 695.489075,715.600708 695.197083,715.291931 
	C695.347839,715.199646 695.560608,715.336487 695.776245,715.752869 
z"/>
<path fill="#003551" opacity="1.000000" stroke="none" 
	d="
M270.776245,704.752808 
	C270.662476,704.771057 270.489075,704.600647 270.197083,704.291870 
	C270.347809,704.199646 270.560547,704.336487 270.776245,704.752808 
z"/>
<path fill="#003551" opacity="1.000000" stroke="none" 
	d="
M326.755920,717.863281 
	C326.834869,717.997009 326.361084,717.977844 326.124054,717.968018 
	C326.103729,717.653137 326.367035,717.576904 326.755920,717.863281 
z"/>
<path fill="#003551" opacity="1.000000" stroke="none" 
	d="
M362.755920,62.863327 
	C362.834869,62.997059 362.361023,62.977894 362.123993,62.968067 
	C362.103729,62.653122 362.367065,62.576908 362.755920,62.863327 
z"/>
<path fill="#003551" opacity="1.000000" stroke="none" 
	d="
M343.755920,718.863281 
	C343.834869,718.997009 343.361084,718.977844 343.124054,718.968018 
	C343.103729,718.653137 343.367035,718.576904 343.755920,718.863281 
z"/>
<path fill="#003551" opacity="1.000000" stroke="none" 
	d="
M323.755920,62.863327 
	C323.834869,62.997059 323.361023,62.977894 323.123993,62.968067 
	C323.103729,62.653122 323.367065,62.576908 323.755920,62.863327 
z"/>
<path fill="#003551" opacity="1.000000" stroke="none" 
	d="
M247.776245,693.752808 
	C247.662476,693.771057 247.489120,693.600647 247.197144,693.291870 
	C247.347870,693.199646 247.560562,693.336487 247.776245,693.752808 
z"/>
<path fill="#003551" opacity="1.000000" stroke="none" 
	d="
M613.776245,679.752869 
	C613.662415,679.771118 613.489075,679.600708 613.197083,679.291931 
	C613.347839,679.199646 613.560608,679.336487 613.776245,679.752869 
z"/>
<path fill="#003551" opacity="1.000000" stroke="none" 
	d="
M618.776245,681.752869 
	C618.662415,681.771118 618.489075,681.600708 618.197083,681.291931 
	C618.347839,681.199646 618.560608,681.336487 618.776245,681.752869 
z"/>
<path fill="#003551" opacity="1.000000" stroke="none" 
	d="
M604.755859,674.863342 
	C604.834778,674.997070 604.361023,674.977844 604.124023,674.968018 
	C604.103760,674.653015 604.367065,674.576843 604.755859,674.863342 
z"/>
<path fill="#003551" opacity="1.000000" stroke="none" 
	d="
M442.755920,74.863319 
	C442.834869,74.997047 442.361023,74.977890 442.123993,74.968071 
	C442.103729,74.653122 442.367065,74.576904 442.755920,74.863319 
z"/>
<path fill="#003551" opacity="1.000000" stroke="none" 
	d="
M436.386963,73.541702 
	C436.341492,73.473488 436.432434,73.609917 436.386963,73.541702 
z"/>
<path fill="#003551" opacity="1.000000" stroke="none" 
	d="
M429.755920,71.863319 
	C429.834869,71.997047 429.361023,71.977890 429.123993,71.968071 
	C429.103729,71.653122 429.367065,71.576904 429.755920,71.863319 
z"/>
<path fill="#003551" opacity="1.000000" stroke="none" 
	d="
M637.755859,689.863342 
	C637.834778,689.997070 637.361023,689.977844 637.124023,689.968018 
	C637.103760,689.653015 637.367065,689.576843 637.755859,689.863342 
z"/>
<path fill="#003551" opacity="1.000000" stroke="none" 
	d="
M416.486176,69.558640 
	C416.416382,69.600418 416.555969,69.516853 416.486176,69.558640 
z"/>
<path fill="#003551" opacity="1.000000" stroke="none" 
	d="
M275.776245,706.752808 
	C275.662476,706.771057 275.489075,706.600647 275.197083,706.291870 
	C275.347809,706.199646 275.560547,706.336487 275.776245,706.752808 
z"/>
<path fill="#003551" opacity="1.000000" stroke="none" 
	d="
M409.755920,67.863319 
	C409.834869,67.997047 409.361023,67.977890 409.123993,67.968071 
	C409.103729,67.653122 409.367065,67.576904 409.755920,67.863319 
z"/>
<path fill="#003551" opacity="1.000000" stroke="none" 
	d="
M402.755920,66.863319 
	C402.834869,66.997047 402.361023,66.977890 402.123993,66.968071 
	C402.103729,66.653122 402.367065,66.576904 402.755920,66.863319 
z"/>
<path fill="#003551" opacity="1.000000" stroke="none" 
	d="
M286.486176,66.558640 
	C286.416382,66.600418 286.555969,66.516853 286.486176,66.558640 
z"/>
<path fill="#003551" opacity="1.000000" stroke="none" 
	d="
M260.755920,699.863281 
	C260.834869,699.997009 260.361084,699.977844 260.124054,699.968018 
	C260.103729,699.653137 260.367035,699.576904 260.755920,699.863281 
z"/>
<path fill="#003551" opacity="1.000000" stroke="none" 
	d="
M394.755920,65.863319 
	C394.834869,65.997047 394.361023,65.977890 394.123993,65.968071 
	C394.103729,65.653122 394.367065,65.576904 394.755920,65.863319 
z"/>
<path fill="#003551" opacity="1.000000" stroke="none" 
	d="
M387.755920,64.863319 
	C387.834869,64.997047 387.361023,64.977890 387.123993,64.968071 
	C387.103729,64.653122 387.367065,64.576904 387.755920,64.863319 
z"/>
<path fill="#003551" opacity="1.000000" stroke="none" 
	d="
M609.755859,676.863342 
	C609.834778,676.997070 609.361023,676.977844 609.124023,676.968018 
	C609.103760,676.653015 609.367065,676.576843 609.755859,676.863342 
z"/>
<path fill="#003551" opacity="1.000000" stroke="none" 
	d="
M379.776245,64.752762 
	C379.662476,64.771049 379.489136,64.600639 379.197205,64.291901 
	C379.347900,64.199661 379.560577,64.336494 379.776245,64.752762 
z"/>
</svg>